PathFileType  4	(X/Y/Z) E:\AxonAIRepo\axonai_vps\Data\session_74dd741a74\MarkerData\OpenPose_default\PreAugmentation
DataRate	CameraRate	NumFrames	NumMarkers	Units	OrigDataRate	OrigDataStartFrame	OrigNumFrames
60.0	60.0	18	20	m	60.0	249	398
Frame#	Time	Neck			RShoulder			RElbow			RWrist			LShoulder			LElbow			LWrist			midHip			RHip			RKnee			RAnkle			LHip			LKnee			LAnkle			LBigToe			LSmallToe			LHeel			RBigToe			RSmallToe			RHeel			
		X1	Y1	Z1	X2	Y2	Z2	X3	Y3	Z3	X4	Y4	Z4	X5	Y5	Z5	X6	Y6	Z6	X7	Y7	Z7	X8	Y8	Z8	X9	Y9	Z9	X10	Y10	Z10	X11	Y11	Z11	X12	Y12	Z12	X13	Y13	Z13	X14	Y14	Z14	X15	Y15	Z15	X16	Y16	Z16	X17	Y17	Z17	X18	Y18	Z18	X19	Y19	Z19	X20	Y20	Z20	

249	4.1333333	-2.7264200	1.4926900	0.2536000	-2.8821300	1.4940500	0.4514200	-2.5953300	1.1851600	0.5056500	-2.7175500	0.8936400	0.5262300	-2.6149000	1.4909000	0.0769300	-2.4937100	1.2007800	0.0046900	-2.2805900	0.9465800	-0.0088800	-2.7515900	0.9448900	0.2552500	-2.5918600	0.9533700	0.3592900	-2.4968600	0.5921100	0.3273600	-2.5517000	0.1300800	0.3530900	-2.7136900	0.9517600	0.1622800	-2.6480600	0.5668100	0.1675800	-2.6161500	0.1286100	0.1941500	-2.5839800	0.0277300	0.2020000	-2.7928400	0.0119200	0.1247200	-2.7779500	0.0657600	0.2347200	-2.4239200	0.0549800	0.3157600	-2.6753400	0.0119300	0.4020100	-2.7008100	0.0639200	0.3628400
250	4.1500000	-2.7087500	1.4914600	0.2502400	-2.8840200	1.4895900	0.4519100	-2.5916600	1.1834900	0.5047700	-2.6841100	0.8906600	0.5262400	-2.6124500	1.4903300	0.0762400	-2.4880000	1.2004600	0.0079300	-2.2750200	0.9530900	-0.0013800	-2.7242000	0.9412600	0.2558200	-2.5925700	0.9534400	0.3595900	-2.4732000	0.5864800	0.3290600	-2.5071800	0.1286500	0.3428800	-2.6668300	0.9478300	0.1666500	-2.5964200	0.5657300	0.1723100	-2.5920900	0.1301900	0.1906500	-2.5074700	0.0360600	0.1913800	-2.7554200	0.0183000	0.1237200	-2.7591200	0.0689600	0.2312400	-2.3841600	0.0456800	0.3117900	-2.5814100	0.0024600	0.3879000	-2.6757500	0.0484500	0.3546000
251	4.1666667	-2.6809700	1.4879500	0.2450300	-2.8793700	1.4868700	0.4508900	-2.5743900	1.1779900	0.5001700	-2.6587700	0.8875300	0.5276500	-2.5940300	1.4873800	0.0734200	-2.4878600	1.1999100	0.0126900	-2.3045000	0.9548400	0.0067000	-2.6778400	0.9371100	0.2543900	-2.5875500	0.9523400	0.3585300	-2.4691700	0.5765800	0.3301300	-2.4872800	0.1213600	0.3373400	-2.6297100	0.9419700	0.1687800	-2.5643300	0.5593800	0.1757300	-2.6081900	0.1255700	0.1928300	-2.4540400	0.0499500	0.1813300	-2.7330000	0.0233600	0.1229300	-2.7680600	0.0706200	0.2337500	-2.3562900	0.0373000	0.3075000	-2.4920700	0.0072000	0.3735200	-2.6405500	0.0369700	0.3468400
252	4.1833333	-2.6609800	1.4827300	0.2413400	-2.8620600	1.4843800	0.4468600	-2.5503100	1.1707200	0.4938100	-2.6282500	0.8863900	0.5273200	-2.5654200	1.4825500	0.0691000	-2.4937000	1.2006700	0.0146200	-2.3442000	0.9533000	0.0133500	-2.6341500	0.9315500	0.2508300	-2.5760400	0.9470500	0.3559100	-2.4955300	0.5660900	0.3296600	-2.4693000	0.1160300	0.3324900	-2.5962900	0.9351200	0.1670600	-2.5696100	0.5478000	0.1763500	-2.6556300	0.1147500	0.2031000	-2.4957000	0.0341200	0.1854800	-2.7320100	0.0166000	0.1244200	-2.7768000	0.0644300	0.2421700	-2.3447600	0.0335200	0.3012500	-2.4372200	0.0115300	0.3639000	-2.5752900	0.0292600	0.3391000
253	4.2000000	-2.6567600	1.4777700	0.2405300	-2.8388700	1.4806700	0.4409900	-2.5338900	1.1660600	0.4911100	-2.5984900	0.8861000	0.5245500	-2.5455500	1.4788300	0.0660500	-2.4826900	1.1992400	0.0120000	-2.3615800	0.9534300	0.0169800	-2.6106000	0.9248800	0.2476800	-2.5704200	0.9389600	0.3541900	-2.5289600	0.5590500	0.3269300	-2.4371300	0.1152200	0.3279100	-2.5681700	0.9306600	0.1626300	-2.5967300	0.5346700	0.1753300	-2.7090100	0.1012700	0.2195500	-2.6433800	-0.0041600	0.2044300	-2.7468500	0.0075300	0.1276500	-2.7693100	0.0540300	0.2529100	-2.3537600	0.0324400	0.2958200	-2.4307100	0.0108800	0.3582900	-2.4929500	0.0266800	0.3315600
254	4.2166667	-2.6550100	1.4732500	0.2400300	-2.8180000	1.4763100	0.4354700	-2.5241700	1.1650100	0.4938700	-2.5863800	0.8824700	0.5226700	-2.5412600	1.4754700	0.0653400	-2.4426600	1.1964200	0.0076000	-2.3459900	0.9536300	0.0194200	-2.5982800	0.9199600	0.2453600	-2.5707000	0.9297800	0.3542500	-2.5383700	0.5530500	0.3220400	-2.3975400	0.1190600	0.3238200	-2.5495800	0.9275500	0.1589300	-2.6156500	0.5235000	0.1748000	-2.7370600	0.0890400	0.2342800	-2.7852900	-0.0457100	0.2236200	-2.7572200	-0.0091100	0.1311700	-2.7486800	0.0354400	0.2611200	-2.3640700	0.0241600	0.2927300	-2.4324800	0.0046600	0.3519800	-2.4197800	0.0278800	0.3245000
255	4.2333333	-2.6391900	1.4703200	0.2368700	-2.7895600	1.4719500	0.4303500	-2.5080500	1.1652000	0.4970700	-2.5955700	0.8757200	0.5246100	-2.5439800	1.4728200	0.0656500	-2.4026600	1.1930200	0.0046100	-2.3210200	0.9527900	0.0227200	-2.5772500	0.9165800	0.2415900	-2.5521100	0.9213100	0.3527000	-2.5241200	0.5482100	0.3162800	-2.3689400	0.1165400	0.3189500	-2.5391300	0.9218900	0.1573500	-2.6192600	0.5158500	0.1747500	-2.7153000	0.0857700	0.2355200	-2.8034800	-0.0613600	0.2232200	-2.7573700	-0.0234500	0.1319200	-2.7213100	0.0190800	0.2605800	-2.3630500	0.0183800	0.2886200	-2.4034600	0.0051900	0.3411500	-2.3686700	0.0355300	0.3165200
256	4.2500000	-2.6125300	1.4695400	0.2318000	-2.7489200	1.4648700	0.4267700	-2.4842000	1.1648500	0.4960800	-2.6021100	0.8722600	0.5276800	-2.5456400	1.4707900	0.0658600	-2.3916800	1.1913900	0.0043700	-2.3152500	0.9526100	0.0261900	-2.5466500	0.9136000	0.2361200	-2.5041400	0.9163500	0.3485800	-2.5052800	0.5445500	0.3124100	-2.3538500	0.1038700	0.3120600	-2.5313200	0.9133300	0.1569000	-2.6190400	0.5082400	0.1741300	-2.6445000	0.0959400	0.2202800	-2.7101400	-0.0453200	0.2032200	-2.7522400	-0.0312100	0.1295200	-2.6779000	0.0113100	0.2495600	-2.3398800	0.0184400	0.2816000	-2.3475000	0.0141500	0.3286000	-2.3315200	0.0427900	0.3085200
257	4.2666667	-2.5939900	1.4685800	0.2282200	-2.7169500	1.4570600	0.4269600	-2.4593100	1.1628700	0.4928900	-2.5782800	0.8764800	0.5273600	-2.5456400	1.4697300	0.0658400	-2.3966700	1.1910500	0.0066300	-2.3269300	0.9497900	0.0284300	-2.5220900	0.9096600	0.2318700	-2.4524100	0.9128200	0.3455300	-2.4883700	0.5423900	0.3117000	-2.3398900	0.0882700	0.3051000	-2.5197800	0.9073900	0.1571900	-2.6228800	0.5016000	0.1723000	-2.5664400	0.1100000	0.2010000	-2.5941500	-0.0237500	0.1832100	-2.7420500	-0.0378300	0.1259000	-2.6251500	0.0145200	0.2344800	-2.2886400	0.0186400	0.2723200	-2.2960600	0.0213500	0.3198000	-2.3056500	0.0450600	0.3024300
258	4.2833333	-2.5925600	1.4659600	0.2274100	-2.7043400	1.4494700	0.4285500	-2.4319700	1.1583600	0.4913100	-2.5326800	0.8794500	0.5241300	-2.5463400	1.4687300	0.0657500	-2.3886300	1.1917400	0.0100200	-2.3360400	0.9471800	0.0301600	-2.5072300	0.9053200	0.2307600	-2.4232900	0.9095600	0.3448800	-2.4663200	0.5398400	0.3129400	-2.3261000	0.0741800	0.3010600	-2.4985800	0.9059800	0.1588300	-2.6175500	0.4947200	0.1709300	-2.5385000	0.1147800	0.1919700	-2.5301500	-0.0048900	0.1775300	-2.7300400	-0.0371000	0.1248700	-2.5908000	0.0168500	0.2241700	-2.2212500	0.0187200	0.2616700	-2.2670300	0.0213400	0.3155400	-2.2996200	0.0413700	0.2989100
259	4.3000000	-2.5998600	1.4599000	0.2280100	-2.6914500	1.4443200	0.4276400	-2.4049400	1.1529600	0.4918000	-2.5095200	0.8783300	0.5239600	-2.5479400	1.4646300	0.0656900	-2.3640900	1.1886700	0.0128200	-2.3287900	0.9462200	0.0343500	-2.4898400	0.9038800	0.2320400	-2.4168000	0.9077800	0.3449200	-2.4362300	0.5277300	0.3148300	-2.3137800	0.0652600	0.2987900	-2.4726700	0.9065600	0.1612000	-2.5884300	0.4875500	0.1718100	-2.5834200	0.1033600	0.1968500	-2.5289200	-0.0048000	0.1874700	-2.7016400	-0.0327200	0.1299900	-2.6063400	0.0093000	0.2233500	-2.1477500	0.0219300	0.2511900	-2.2425400	0.0191500	0.3126100	-2.3127600	0.0361300	0.2955800
260	4.3166667	-2.5993400	1.4504100	0.2287800	-2.6588900	1.4398900	0.4260000	-2.3955100	1.1453500	0.4941500	-2.5314000	0.8732000	0.5310000	-2.5489200	1.4559900	0.0655400	-2.3402700	1.1831100	0.0131000	-2.3014600	0.9461600	0.0411900	-2.4618900	0.9024800	0.2344200	-2.4184000	0.9048500	0.3447800	-2.4110000	0.5129100	0.3157500	-2.2918100	0.0602000	0.2952000	-2.4546300	0.9044500	0.1627200	-2.5476400	0.4810600	0.1740800	-2.6696700	0.0803100	0.2101700	-2.5692900	-0.0260200	0.2061400	-2.6486500	-0.0291600	0.1391200	-2.6615800	-0.0091600	0.2306700	-2.0669500	0.0177400	0.2444300	-2.1939700	0.0156300	0.3105500	-2.3172300	0.0296800	0.2904900
261	4.3333333	-2.5785200	1.4400100	0.2291500	-2.6106800	1.4345300	0.4267500	-2.4142400	1.1381900	0.4991000	-2.5643600	0.8675100	0.5386400	-2.5500900	1.4445200	0.0653700	-2.3254700	1.1762200	0.0107700	-2.2606000	0.9443500	0.0478500	-2.4238200	0.8992800	0.2374600	-2.4149900	0.9002500	0.3448000	-2.3958900	0.5033600	0.3159800	-2.2640100	0.0581600	0.2900300	-2.4443300	0.8999300	0.1633900	-2.5195600	0.4733900	0.1757200	-2.7422300	0.0577800	0.2234000	-2.6247200	-0.0507000	0.2238700	-2.6000400	-0.0282400	0.1471500	-2.7118600	-0.0255200	0.2395400	-2.0064400	0.0094400	0.2413600	-2.1324900	0.0081900	0.3105600	-2.2995500	0.0275000	0.2848800
262	4.3500000	-2.5442400	1.4325700	0.2286900	-2.5636700	1.4284700	0.4292800	-2.4438800	1.1322200	0.5051600	-2.5578000	0.8678400	0.5355400	-2.5535900	1.4364400	0.0653300	-2.3112000	1.1698800	0.0068500	-2.2184100	0.9390800	0.0526300	-2.3737200	0.8964100	0.2417200	-2.3978300	0.8946400	0.3456700	-2.3773100	0.4959600	0.3170500	-2.2450400	0.0545000	0.2863900	-2.4284900	0.8946500	0.1648500	-2.5116700	0.4644000	0.1762700	-2.7804300	0.0420200	0.2322500	-2.6759000	-0.0722100	0.2349100	-2.5976100	-0.0338500	0.1517900	-2.7354600	-0.0208200	0.2444300	-1.9861600	-0.0041200	0.2399100	-2.0917200	-0.0062400	0.3112200	-2.2743700	0.0263500	0.2817000
263	4.3666667	-2.5121500	1.4315200	0.2279400	-2.5217700	1.4242100	0.4321000	-2.4529300	1.1297000	0.5080500	-2.5039300	0.8706600	0.5221400	-2.5569100	1.4348700	0.0653900	-2.2921100	1.1637200	0.0026400	-2.1891800	0.9315200	0.0550600	-2.3125000	0.8965200	0.2473200	-2.3680700	0.8917000	0.3474800	-2.3482600	0.4902000	0.3182200	-2.2429600	0.0490300	0.2862600	-2.4061800	0.8921100	0.1673500	-2.5133300	0.4584200	0.1762300	-2.8017500	0.0307700	0.2377500	-2.7314100	-0.0909000	0.2386100	-2.6519100	-0.0480000	0.1521500	-2.7415500	-0.0101000	0.2469300	-1.9957300	-0.0166300	0.2380600	-2.0873600	-0.0219800	0.3098800	-2.2574900	0.0214000	0.2825200
264	4.3833333	-2.4747200	1.4336400	0.2282200	-2.4707500	1.4211100	0.4350900	-2.4285500	1.1295500	0.5069000	-2.4337200	0.8744600	0.5102500	-2.5476700	1.4353400	0.0652400	-2.2765500	1.1582100	0.0000900	-2.1896500	0.9222000	0.0541800	-2.2523300	0.8988400	0.2530000	-2.3341100	0.8930900	0.3496300	-2.3185200	0.4837000	0.3181600	-2.2501800	0.0424600	0.2887900	-2.3908300	0.8925400	0.1694800	-2.5083200	0.4566000	0.1750200	-2.8152400	0.0223100	0.2408200	-2.7917500	-0.1089400	0.2364000	-2.7318300	-0.0599800	0.1475600	-2.7568800	-0.0039200	0.2503300	-2.0030800	-0.0229600	0.2355200	-2.1039100	-0.0343600	0.3059700	-2.2515800	0.0136600	0.2870800
265	4.4000000	-2.4140000	1.4367500	0.2298200	-2.4002900	1.4172100	0.4372300	-2.3899200	1.1313400	0.5059200	-2.3744300	0.8774000	0.5088800	-2.5122000	1.4359500	0.0643500	-2.2728600	1.1544600	0.0005700	-2.2212100	0.9158400	0.0494800	-2.2093000	0.9015800	0.2567100	-2.3014200	0.8966500	0.3516900	-2.2993400	0.4774500	0.3171900	-2.2510200	0.0414200	0.2906300	-2.3865900	0.8925300	0.1703300	-2.4880000	0.4567200	0.1716100	-2.8067500	0.0191000	0.2411000	-2.8228300	-0.1186600	0.2309200	-2.7795100	-0.0689200	0.1409700	-2.7759900	-0.0096900	0.2539900	-1.9915200	-0.0203200	0.2316600	-2.1193900	-0.0395700	0.3008300	-2.2526500	0.0087000	0.2918900
266	4.4166667	-2.3425500	1.4376100	0.2327100	-2.3190800	1.4120300	0.4364600	-2.3560800	1.1352500	0.5069600	-2.3358000	0.8800600	0.5162400	-2.4603300	1.4388200	0.0630300	-2.2799000	1.1565000	0.0028200	-2.2574300	0.9088400	0.0427100	-2.1873200	0.9028000	0.2569600	-2.2702400	0.8988200	0.3536600	-2.2914000	0.4736400	0.3164000	-2.2341200	0.0455100	0.2899300	-2.3816700	0.8925600	0.1692200	-2.4619800	0.4579600	0.1671900	-2.7654600	0.0270000	0.2386600	-2.7988100	-0.1122900	0.2259600	-2.7761200	-0.0689600	0.1364800	-2.7800100	-0.0188500	0.2547400	-1.9706600	-0.0122300	0.2270300	-2.1240800	-0.0392200	0.2983400	-2.2478600	0.0077500	0.2923300
